<svg id="Group_69" data-name="Group 69" xmlns="http://www.w3.org/2000/svg" width="283.5" height="27.222" viewBox="0 0 283.5 27.222">
  <path id="Path_76" data-name="Path 76" d="M283.5,14.11s-7.3-4.3-14-4.6a86.727,86.727,0,0,0-20.9,1.5c-11.3,2-33.1,10.1-44.7,5.7s-12.1-4.6-18-7.4c-6.6-3.2-20-9.6-36.6-9.3-17.7.3-49.8,16.6-63,15.8a60.1,60.1,0,0,1-10.5-2c-3.8-1.2-9.4-3.8-17-4.7a86.119,86.119,0,0,0-14.2-.9,84.883,84.883,0,0,0-12,1.6c-5.7,1.2-11,3.1-15.8,3.7C6.5,14.61,0,13.01,0,13.01v10.8H283.5Zm-22.7-1.6c-.7,1-2,.4-4.3.4a26.953,26.953,0,0,0-5.8,1.1,24.1,24.1,0,0,1,6-1.9C259.7,11.61,261.4,11.51,260.8,12.51Zm-18.4,2.7a47.6,47.6,0,0,0-5.6.9c-3.2.8-10.3,2.8-15.1,3.5-8.2,1.1-15.8,0-15.1-.1.8-.1,9.6.6,17.6-1.1,3.3-.7,9.3-2.2,12.4-2.7A29.371,29.371,0,0,1,242.4,15.21Zm-57.2.1c1.7.7-13.3-4.7-18.5-6.1a64.633,64.633,0,0,0-10-2c-3.9-.4-8.9-.4-8.8-.5,0-.2,5.8-.8,11.2,0a56.849,56.849,0,0,1,7.6,1.6C170.5,9.11,183.5,14.61,185.2,15.31Zm13.9,1.6c.2,0-.8.4-4.8-1.1a27.063,27.063,0,0,1-6.9-3.7c-.2-.1,3.5,1.8,6.6,3A47.567,47.567,0,0,0,199.1,16.91Zm83.9.9c-.1-.1-1.9-1.1-4.8-2.5a65.322,65.322,0,0,0-6.7-2.7,28.03,28.03,0,0,1,7.4,2.5C282.8,17.01,283.1,17.91,283,17.81ZM31.3,12.21c.1.2-1.9.2-4.5,1.2a40.721,40.721,0,0,1-7.8,2c-4,.8-11.7-.1-11.3-.2.3-.1,8.2.3,12.5-.7a40.726,40.726,0,0,0,5.7-1.6C29.2,11.81,31.2,11.91,31.3,12.21ZM73,14.61a46.562,46.562,0,0,0,8.4,2.6c4.9,1.1,8.9.5,8.9.8s-1,.9-6.2.3A36.309,36.309,0,0,1,73,14.61Zm-1.4,2.5c.2-.1,3.4,1.3,5.7,1.7,2.3.3,1.9.5,1.9.6a5.216,5.216,0,0,1-2.7-.2A23.176,23.176,0,0,1,71.6,17.11Zm22,2.3c.1-.2,3.5-.8,5.6-1.8s1.8-.6,1.9-.5-.8.8-2.4,1.3C97.1,19.01,93.5,19.61,93.6,19.41Zm-28.2-6.7c-.1-.3.3-.5,1.9.2s2.6,1.3,2.2,1.2a25.156,25.156,0,0,0-2.5-.8C65.3,12.91,65.5,13.01,65.4,12.71Zm-30.9-1.3a13.1,13.1,0,0,1,3.3-.9c1.2-.1,2-.1,2,.2s-.1.5-1.6.4A19.935,19.935,0,0,0,34.5,11.41Zm117.7-8.7c-.1-.1-2.4.3-7.5.3-5,0-13.6,2.4-17.2,3.5s10-3.9,16.5-4.1A42.031,42.031,0,0,1,152.2,2.71Z" transform="translate(0 3.412)" fill="#fd0859"/>
  <path id="Path_77" data-name="Path 77" d="M269.6,15.587c-.1.1-4.6-.3-7.2,0-7.3.7-17,3.2-16.6,2.9a151.424,151.424,0,0,1,17-3.3C267.7,14.787,269.7,15.587,269.6,15.587Z" transform="translate(0 -6.365)" fill="#fd0859"/>
  <path id="Path_78" data-name="Path 78" d="M227.4,7.777a52.459,52.459,0,0,1-9.5,1.2c-5,.2-12.7-.6-12.3-.5a37.965,37.965,0,0,0,13.3,1.2C226.3,9.077,227.6,7.677,227.4,7.777Z" transform="translate(0 9.645)" fill="#fd0859"/>
  <path id="Path_79" data-name="Path 79" d="M204.5,12.274a8.453,8.453,0,0,0,3.2,1.1c1.2.1,2,0,2-.3s-.1-.5-1.6-.4A22.109,22.109,0,0,1,204.5,12.274Z" transform="translate(0 1.549)" fill="#fd0859"/>
  <path id="Path_80" data-name="Path 80" d="M201,15.9a33.99,33.99,0,0,1-6.3-2.2c-1.9-.9-6.2-3.1-6.1-3.1a57.25,57.25,0,0,1,6.3,2.6C197,14.2,201,15.8,201,15.9Z" transform="translate(0 0.724)" fill="#fd0859"/>
  <path id="Path_81" data-name="Path 81" d="M154.5,24.3c-.1.1-4.6-.3-7.2,0-7.3.7-17,3.2-16.6,2.9a151.424,151.424,0,0,1,17-3.3C152.6,23.5,154.6,24.2,154.5,24.3Z" transform="translate(0 -23.775)" fill="#fd0859"/>
  <path id="Path_82" data-name="Path 82" d="M41.9,17.932a8.853,8.853,0,0,0,2.9.1c1.7-.2,5.8-.9,8.2-.7,4.2.4,7.4,2.7,7,2.6-.4,0-4.3-2.2-8.6-1.9-1.8.1-5.1.5-6.7.4A12.2,12.2,0,0,1,41.9,17.932Z" transform="translate(0 -10.01)" fill="#fd0859"/>
  <path id="Path_83" data-name="Path 83" d="M75.5,10.806a43.011,43.011,0,0,0,4.3,1.1c2.3.2,2.1.3,2.1.5a6.867,6.867,0,0,1-3.4,0C76.9,11.906,75.3,10.906,75.5,10.806Z" transform="translate(0 3.817)" fill="#fd0859"/>
  <path id="Path_84" data-name="Path 84" d="M15.6,15.673a33.285,33.285,0,0,0,6.7-.5,16.676,16.676,0,0,0,5-2c0-.1-2.7.8-5.1,1.4C19.9,15.173,15.7,15.573,15.6,15.673Z" transform="translate(0 -1.65)" fill="#fd0859"/>
</svg>
